<?xml version="1.0" standalone="no"?>
<!DOCTYPE svg PUBLIC "-//W3C//DTD SVG 20010904//EN"
 "http://www.w3.org/TR/2001/REC-SVG-20010904/DTD/svg10.dtd">
<svg version="1.0" xmlns="http://www.w3.org/2000/svg"
 width="246.000000pt" height="246.000000pt" viewBox="0 0 246.000000 246.000000"
 preserveAspectRatio="xMidYMid meet">
<metadata>
Created by potrace 1.11, written by Peter Selinger 2001-2013
</metadata>
<g transform="translate(0.000000,246.000000) scale(0.100000,-0.100000)"
fill="#000000" stroke="none">
<path d="M105 2450 c3 -6 0 -10 -7 -10 -9 0 -9 -3 2 -10 13 -9 13 -10 0 -10
-13 0 -13 -2 -1 -9 12 -8 12 -12 2 -24 -8 -11 -9 -17 -1 -22 6 -3 7 -12 3 -18
-11 -19 -13 -58 -1 -51 5 4 4 -4 -2 -17 -10 -17 -10 -24 -1 -27 6 -2 9 -8 5
-13 -11 -19 -12 -49 -1 -49 8 0 8 -3 0 -11 -8 -8 -8 -20 -2 -36 6 -16 5 -22
-1 -18 -6 3 -10 2 -10 -4 0 -5 5 -13 10 -16 6 -4 8 -11 4 -16 -11 -18 -14 -59
-4 -59 5 0 10 -5 10 -11 0 -5 -3 -8 -8 -5 -4 2 -8 -11 -8 -30 0 -19 4 -34 8
-34 5 0 6 -6 2 -12 -11 -18 -12 -48 -2 -54 4 -3 5 -11 1 -17 -11 -19 -13 -58
-1 -51 5 4 4 -4 -2 -17 -10 -17 -10 -24 -1 -27 6 -2 9 -8 5 -13 -11 -19 -12
-49 -1 -49 8 0 8 -3 0 -11 -8 -8 -8 -20 -2 -36 6 -16 5 -22 -1 -18 -6 3 -10 2
-10 -4 0 -5 5 -13 10 -16 6 -4 8 -11 4 -16 -11 -18 -14 -59 -4 -59 5 0 10 -5
10 -11 0 -5 -3 -8 -8 -5 -4 2 -8 -11 -8 -30 0 -19 4 -34 8 -34 5 0 6 -6 2 -12
-11 -18 -12 -48 -2 -54 4 -3 5 -11 1 -17 -11 -19 -13 -58 -1 -51 5 4 4 -4 -2
-17 -10 -17 -10 -24 -1 -27 6 -2 9 -8 5 -13 -11 -19 -12 -49 -1 -49 8 0 8 -3
0 -11 -8 -8 -8 -20 -2 -36 6 -16 5 -22 -1 -18 -6 3 -10 2 -10 -4 0 -5 5 -13
10 -16 6 -4 8 -11 4 -16 -11 -18 -14 -59 -4 -59 5 0 10 -5 10 -11 0 -5 -3 -8
-8 -5 -4 2 -8 -11 -8 -30 0 -19 4 -34 8 -34 5 0 6 -6 2 -12 -11 -18 -12 -48
-2 -54 4 -3 5 -11 1 -17 -11 -19 -13 -58 -1 -51 5 4 4 -4 -2 -17 -10 -17 -10
-24 -1 -27 6 -2 9 -8 5 -13 -11 -19 -12 -49 -1 -49 8 0 8 -3 0 -11 -8 -8 -8
-20 -2 -36 6 -16 5 -22 -1 -18 -6 3 -10 2 -10 -4 0 -5 5 -13 10 -16 6 -4 8
-11 4 -16 -11 -18 -14 -59 -4 -59 5 0 10 -5 10 -11 0 -5 -3 -8 -8 -5 -4 2 -8
-11 -8 -30 0 -19 4 -34 8 -34 5 0 6 -6 2 -12 -11 -18 -12 -48 -2 -54 4 -3 5
-11 1 -17 -11 -19 -13 -58 -1 -51 5 4 4 -4 -2 -17 -10 -17 -10 -24 -1 -27 6
-2 9 -8 5 -13 -11 -19 -12 -49 -1 -49 8 0 8 -3 0 -11 -8 -8 -8 -20 -2 -36 6
-16 5 -22 -1 -18 -6 3 -10 2 -10 -4 0 -5 5 -13 10 -16 6 -4 8 -11 4 -16 -11
-18 -14 -59 -4 -59 5 0 10 -5 10 -11 0 -5 -3 -8 -8 -6 -4 3 -7 -8 -7 -24 -1
-16 3 -29 7 -29 4 0 7 -6 6 -12 -2 -9 17 -15 60 -18 34 -3 62 -3 62 0 0 3 36
3 80 0 44 -3 80 -1 80 4 0 5 7 3 15 -4 10 -9 15 -9 15 -1 0 6 6 10 13 9 6 -2
11 3 9 10 -1 6 4 12 10 12 9 0 8 4 -2 10 -8 5 -10 10 -5 10 7 0 10 239 9 700
-1 521 1 698 10 694 6 -3 2 2 -8 10 -13 10 -15 16 -7 16 11 0 11 3 1 16 -11
12 -11 15 1 12 18 -4 39 -24 39 -38 0 -6 4 -8 10 -5 5 3 10 -1 10 -9 0 -8 8
-20 18 -25 9 -6 13 -11 8 -11 -5 0 1 -8 12 -19 12 -10 19 -21 15 -25 -3 -3 1
-6 10 -6 9 0 17 -5 17 -11 0 -5 -6 -7 -12 -3 -7 4 2 -7 21 -25 19 -17 31 -31
26 -31 -5 0 2 -11 14 -24 14 -15 20 -30 15 -37 -5 -9 -2 -10 9 -6 11 4 17 1
17 -9 0 -8 6 -17 14 -20 9 -3 12 -12 9 -21 -4 -10 -2 -14 5 -9 6 3 13 -3 17
-14 4 -11 11 -18 16 -15 5 4 9 1 9 -6 0 -6 8 -19 18 -28 9 -9 18 -23 20 -31 2
-8 8 -16 13 -18 5 -2 9 -9 9 -16 0 -6 9 -18 20 -26 11 -8 20 -23 20 -34 0 -11
3 -17 6 -13 10 10 32 -17 26 -32 -3 -9 -1 -12 6 -7 6 3 13 -3 17 -14 3 -11 11
-20 16 -20 5 0 9 -7 9 -15 0 -8 5 -15 11 -15 5 0 7 -5 3 -12 -4 -7 -3 -8 4 -4
8 4 16 -3 22 -18 5 -14 14 -26 20 -26 6 0 8 -4 5 -10 -3 -6 -1 -10 4 -10 6 0
11 -7 11 -16 0 -8 4 -12 10 -9 5 3 10 0 10 -8 0 -7 9 -23 20 -35 11 -12 20
-25 20 -30 0 -5 8 -16 17 -23 14 -12 16 -12 8 0 -5 10 -4 12 4 7 6 -4 9 -11 6
-15 -2 -5 7 -21 20 -37 39 -45 45 -53 45 -61 0 -5 9 -15 20 -23 14 -10 16 -16
7 -22 -8 -5 -6 -8 7 -8 11 0 16 -3 13 -7 -4 -3 2 -12 13 -20 11 -8 20 -19 20
-25 0 -6 12 -22 26 -35 14 -13 24 -27 20 -30 -6 -7 32 -43 45 -43 5 0 6 -7 3
-15 -4 -8 1 -17 10 -21 9 -3 13 -10 10 -15 -3 -5 1 -9 8 -9 7 0 19 -9 26 -21
11 -17 11 -20 0 -13 -7 4 0 -5 15 -19 17 -16 25 -32 21 -40 -4 -6 -4 -9 1 -5
5 5 13 -2 20 -15 6 -12 17 -21 23 -19 11 2 17 -18 13 -41 -1 -5 2 -6 7 -3 5 3
15 -6 22 -19 7 -13 17 -22 21 -19 5 3 6 -2 3 -10 -7 -17 69 -61 91 -52 8 3 16
0 19 -7 3 -8 9 -6 16 6 9 14 15 16 26 6 16 -13 134 -18 134 -5 0 5 6 3 14 -3
11 -9 15 -9 19 1 4 10 6 10 6 -1 1 -11 4 -11 18 0 14 12 16 12 9 -1 -4 -8 -1
-7 7 3 11 14 16 15 20 5 3 -7 4 -3 4 9 -1 12 -5 19 -9 17 -4 -3 -8 0 -8 6 0 6
-5 8 -10 5 -6 -4 -10 -3 -9 2 5 19 -15 51 -63 105 -15 17 -25 35 -21 41 3 6 1
7 -5 3 -12 -7 -35 27 -25 38 3 3 -1 6 -10 6 -16 0 -22 12 -18 33 1 5 -3 6 -9
2 -5 -3 -10 1 -10 10 0 9 -4 13 -10 10 -5 -3 -10 1 -10 9 0 9 -4 16 -10 16 -5
0 -10 6 -10 13 0 6 -14 25 -30 41 -17 16 -30 38 -30 48 0 11 -4 16 -10 13 -5
-3 -15 5 -22 19 -6 14 -15 26 -20 26 -4 0 -8 7 -8 15 0 8 -4 15 -10 15 -5 0
-10 5 -10 10 0 6 -14 24 -30 42 -16 17 -30 36 -30 42 0 6 -9 18 -20 26 -11 8
-20 20 -20 27 0 7 -4 13 -10 13 -5 0 -12 11 -16 25 -3 14 -10 25 -16 25 -5 0
-6 -6 -2 -12 4 -8 3 -10 -2 -5 -5 5 -9 12 -9 15 0 4 -5 14 -10 22 -6 8 -15 24
-21 35 -6 11 -16 19 -23 17 -7 -1 -11 6 -9 15 2 10 -2 17 -8 16 -7 -1 -17 11
-24 27 -7 17 -16 30 -21 30 -5 0 -9 9 -9 20 0 11 -3 19 -7 18 -5 -2 -9 1 -10
5 -1 5 -9 14 -19 21 -11 9 -14 18 -9 27 8 12 6 12 -8 1 -14 -12 -16 -11 -12 7
2 12 0 19 -4 16 -9 -5 -26 23 -23 37 1 5 -5 8 -13 8 -8 0 -15 6 -15 13 0 7 -8
20 -17 29 -28 26 -43 46 -43 58 0 5 -4 10 -10 10 -5 0 -10 7 -10 16 0 8 -4 12
-10 9 -5 -3 -10 1 -10 9 0 9 -4 16 -10 16 -5 0 -10 6 -10 13 0 7 -9 19 -19 26
-11 8 -17 21 -13 29 3 10 1 13 -6 8 -7 -4 -15 0 -19 10 -3 10 -15 26 -25 36
-10 10 -18 25 -18 33 0 8 -7 15 -16 15 -8 0 -12 5 -9 10 3 6 1 10 -4 10 -6 0
-11 7 -11 16 0 9 -9 18 -20 21 -11 3 -17 9 -15 14 3 4 -2 17 -12 27 -36 38
-53 63 -53 77 0 8 -3 14 -8 12 -4 -1 -7 1 -7 5 0 4 -9 13 -19 21 -13 9 -16 19
-11 28 8 12 6 12 -8 1 -14 -12 -16 -11 -12 7 2 13 -1 21 -10 21 -8 0 -21 15
-29 33 -8 17 -28 46 -45 64 -17 18 -31 34 -31 37 0 6 -24 37 -47 61 -7 8 -13
21 -13 31 0 10 -3 14 -7 11 -10 -10 -33 13 -33 34 0 10 -9 24 -20 31 -11 7
-20 16 -20 21 0 4 -10 19 -22 32 -39 42 -47 53 -41 59 4 3 -1 6 -10 6 -11 0
-15 7 -12 20 2 11 0 18 -6 15 -5 -4 -9 -1 -9 5 0 6 -6 8 -12 4 -7 -4 -10 -4
-6 1 10 11 -11 47 -23 40 -5 -4 -9 3 -9 14 0 12 -5 21 -11 21 -17 0 -38 32
-39 58 0 13 -4 20 -10 17 -5 -3 -10 1 -10 10 0 9 -4 13 -10 10 -5 -3 -10 1
-10 9 0 9 -7 16 -15 16 -8 0 -15 5 -15 11 0 5 6 7 13 3 6 -4 2 4 -11 17 -43
46 -62 72 -56 81 3 4 0 7 -8 6 -7 -2 -12 2 -11 9 1 6 -4 14 -13 17 -8 3 -12 2
-9 -4z"/>
<path d="M470 2448 c-15 -6 -20 -12 -12 -15 6 -3 12 -11 12 -18 0 -7 7 -16 16
-19 8 -3 12 -10 9 -16 -3 -5 1 -10 9 -10 9 0 15 -6 14 -12 -2 -7 2 -12 9 -11
7 2 10 -6 8 -17 -2 -12 -1 -19 3 -16 4 2 13 -2 20 -10 7 -8 9 -14 5 -14 -4 0
0 -5 10 -11 9 -5 17 -16 17 -24 0 -8 6 -18 14 -22 8 -4 16 -14 18 -22 2 -7 13
-24 26 -37 12 -13 22 -28 22 -34 0 -5 7 -10 16 -10 8 0 12 -4 9 -10 -3 -5 3
-17 15 -27 11 -10 20 -23 20 -30 0 -7 5 -13 10 -13 6 0 10 -4 10 -10 0 -5 8
-18 18 -28 9 -10 23 -28 31 -40 8 -11 18 -19 23 -16 4 3 5 -2 2 -10 -4 -10 2
-19 18 -26 13 -7 25 -21 25 -33 1 -12 9 -27 17 -33 9 -6 13 -14 9 -17 -3 -4 1
-7 11 -7 9 0 14 -4 11 -10 -3 -5 -1 -10 5 -10 6 0 8 -4 5 -10 -3 -5 1 -10 10
-10 9 0 13 -4 10 -10 -3 -5 -1 -10 5 -10 6 0 8 -4 5 -10 -3 -5 1 -10 10 -10
11 0 15 -5 11 -16 -3 -8 -2 -13 3 -10 5 3 11 -3 14 -14 3 -11 12 -20 21 -20 9
0 16 -5 16 -11 0 -5 -6 -7 -12 -3 -9 5 -9 3 1 -9 7 -9 18 -14 24 -10 5 3 7 1
3 -5 -3 -6 -2 -13 4 -17 6 -4 7 -12 4 -18 -4 -7 -4 -9 0 -5 10 8 58 -41 51
-52 -3 -4 2 -10 10 -14 8 -3 15 -12 15 -21 0 -8 7 -15 16 -15 8 0 12 -4 9 -10
-3 -5 -1 -10 5 -10 6 0 8 -4 5 -10 -3 -5 2 -10 11 -10 10 0 14 -3 11 -6 -10
-11 13 -45 25 -38 7 5 9 2 6 -7 -6 -16 16 -42 27 -31 4 4 6 2 5 -3 -5 -21 0
-36 10 -30 9 5 15 -15 11 -37 0 -5 9 -8 22 -8 15 0 18 -3 9 -8 -9 -6 -5 -12
14 -20 17 -8 24 -18 20 -28 -3 -8 -2 -12 4 -9 6 3 10 -1 10 -9 0 -9 5 -16 10
-16 6 0 10 -7 10 -15 0 -8 6 -15 14 -15 12 0 30 -34 27 -52 -1 -5 7 -8 16 -8
9 0 14 -3 11 -6 -4 -3 1 -14 10 -24 31 -34 42 -49 42 -57 0 -5 9 -15 20 -23
14 -10 16 -16 7 -22 -8 -5 -6 -8 6 -8 10 0 15 -4 12 -10 -3 -5 -1 -10 4 -10 6
0 20 -9 31 -20 18 -18 20 -18 21 -2 0 9 1 32 2 50 1 19 -1 36 -6 39 -4 2 -5 8
-2 13 11 18 11 80 1 80 -7 0 -8 3 -1 8 12 9 17 65 5 57 -5 -3 -5 8 0 25 6 21
5 30 -3 30 -8 0 -8 3 -2 8 13 9 13 112 0 112 -7 0 -7 3 0 8 6 4 10 30 10 57 0
28 -4 53 -10 57 -6 5 -5 8 4 8 11 0 11 3 1 15 -7 8 -8 15 -3 15 5 0 9 9 9 20
0 11 -5 20 -11 20 -6 0 -7 3 0 8 6 4 10 30 10 57 0 28 -4 53 -10 57 -6 5 -6 8
1 8 6 0 9 13 6 31 -4 25 -2 30 9 24 12 -8 12 -6 0 8 -7 9 -11 23 -8 31 3 8 1
17 -6 20 -9 3 -9 5 1 5 6 1 12 6 12 12 0 5 -4 8 -9 4 -6 -3 -6 6 -1 25 6 21 5
30 -3 30 -8 0 -8 3 -2 8 13 9 13 112 0 112 -7 0 -7 3 0 8 6 4 10 30 10 57 0
28 -4 53 -10 57 -6 5 -5 8 4 8 11 0 11 3 1 15 -7 8 -8 15 -3 15 5 0 9 9 9 20
0 11 -5 20 -11 20 -6 0 -7 3 0 8 6 4 10 30 10 57 0 28 -4 53 -10 57 -7 5 -7 8
0 8 13 0 9 90 -4 103 -12 12 -111 16 -111 4 0 -5 -5 -5 -12 -1 -16 10 -108 11
-108 1 0 -5 -5 -5 -12 -1 -16 10 -108 11 -108 1 0 -5 -5 -5 -12 -1 -16 10
-108 11 -108 1 0 -5 -5 -5 -12 -1 -16 10 -108 11 -108 1 0 -5 -5 -5 -12 -1
-16 10 -108 11 -108 1 0 -5 -5 -5 -12 -1 -16 10 -108 11 -108 1 0 -5 -5 -5
-12 -1 -16 10 -108 11 -108 1 0 -5 -5 -5 -11 -1 -17 10 -99 10 -99 0 0 -5 -6
-4 -12 2 -9 6 -21 6 -38 0z"/>
<path d="M1955 2451 c3 -5 1 -12 -5 -16 -5 -3 -10 -11 -10 -16 0 -6 4 -8 8 -5
4 2 8 -4 8 -14 0 -10 -3 -17 -6 -15 -10 6 -5 -1220 5 -1227 6 -5 6 -8 -1 -8
-12 0 -12 -48 -1 -67 4 -6 4 -13 0 -17 -10 -10 -9 -66 2 -66 6 0 6 -3 -1 -8
-11 -7 -12 -51 -1 -69 4 -5 4 -13 0 -17 -10 -10 -9 -66 2 -66 6 0 6 -3 -1 -8
-11 -7 -12 -51 -1 -69 4 -5 4 -13 0 -17 -10 -10 -9 -66 2 -66 6 0 6 -3 -1 -8
-11 -7 -12 -51 -1 -69 4 -5 4 -13 0 -17 -10 -9 -10 -56 0 -56 4 0 5 -5 2 -11
-6 -8 -8 -152 -5 -432 0 -33 4 -56 9 -53 5 4 12 0 14 -6 4 -10 6 -10 6 0 1 6
8 12 16 12 8 0 15 5 15 10 0 6 7 10 16 10 9 0 12 5 8 12 -5 8 -2 9 10 5 10 -4
15 -3 11 3 -3 6 -2 10 3 10 17 0 112 102 105 113 -4 6 0 8 11 4 10 -4 15 -3
11 3 -3 6 1 13 9 16 9 3 13 10 10 15 -3 5 2 12 10 15 9 3 14 10 11 14 -3 5 -1
11 5 15 8 5 48 83 55 108 2 4 4 9 5 12 3 7 7 22 9 36 0 5 4 8 9 6 4 -3 8 6 9
19 1 13 3 35 4 49 1 13 5 23 9 20 4 -2 6 7 4 20 -1 14 3 25 9 25 7 0 6 5 -3
11 -12 8 -12 12 -2 16 10 4 10 8 0 21 -10 12 -10 14 0 8 6 -4 12 -3 12 3 0 5
-5 13 -10 16 -7 4 -6 13 1 27 8 14 8 23 0 31 -8 8 -6 16 6 29 15 17 15 18 1
13 -13 -5 -15 -2 -11 14 3 12 -1 29 -8 38 -10 12 -10 14 -1 9 18 -11 15 5 -5
21 -10 8 -12 11 -4 7 10 -5 12 -3 5 7 -5 8 -10 25 -12 39 -2 14 -8 27 -13 28
-6 3 -5 9 2 18 9 11 8 15 -5 20 -9 3 -13 10 -10 15 3 5 0 9 -6 9 -7 0 -10 7
-6 15 3 8 1 15 -5 15 -6 0 -7 5 -4 10 3 6 1 10 -4 10 -6 0 -11 7 -11 15 0 8
-4 15 -10 15 -5 0 -9 6 -7 13 1 6 -4 11 -11 9 -8 -1 -12 3 -10 10 3 7 -3 19
-12 28 -13 12 -13 13 0 5 10 -6 9 -2 -4 12 -10 13 -23 20 -29 16 -6 -3 -7 -1
-3 5 6 10 -29 52 -44 52 -16 0 -8 50 9 60 11 5 23 19 26 30 4 11 11 17 17 14
8 -5 9 -1 5 10 -4 9 -3 15 1 13 9 -6 33 19 25 27 -3 3 2 8 11 12 9 3 14 10 11
14 -3 5 -1 11 5 15 11 7 54 96 52 108 -1 4 2 7 8 7 5 0 7 7 4 15 -4 8 -2 15 3
15 8 0 12 15 15 58 1 6 4 12 8 12 3 0 6 10 7 23 0 31 6 51 18 59 6 5 5 8 -2 8
-9 0 -10 7 -3 24 5 13 6 27 2 30 -10 11 -11 36 0 30 7 -4 7 2 2 17 -4 13 -6
31 -5 39 1 15 1 42 -1 68 -1 6 -6 12 -12 12 -6 0 -4 5 4 10 11 7 11 10 2 10
-7 0 -11 4 -8 8 3 5 -1 21 -9 36 -10 18 -10 24 -2 19 9 -5 9 -3 0 9 -7 8 -10
18 -6 21 3 4 1 7 -5 7 -7 0 -12 9 -12 20 0 11 -6 20 -12 20 -9 0 -8 4 2 10 11
7 11 10 2 10 -7 0 -10 5 -7 10 3 6 1 10 -4 10 -6 0 -10 6 -9 13 2 6 -3 11 -10
9 -6 -1 -11 1 -10 5 4 14 -13 53 -23 53 -5 0 -9 9 -9 21 0 11 -4 18 -9 15 -4
-3 -16 10 -26 29 -11 18 -29 39 -42 46 -13 7 -21 14 -19 17 6 5 -59 68 -79 76
-10 3 -13 11 -9 18 4 7 4 10 -1 6 -4 -4 -15 -2 -23 4 -17 15 -55 22 -47 9z"/>
</g>
</svg>
